<svg width="100" height="30" viewBox="0 0 181 40" fill="none" xmlns="http://www.w3.org/2000/svg">
<path d="M40 0H0V40H40V0Z" fill="#3E7BFA"/>
<path d="M12.3636 12.3636H1V27.6364H12.3636V12.3636Z" fill="#EBECF2"/>
<path d="M27.6364 12.3636H16.2727V27.6364H27.6364V12.3636Z" fill="#EBECF2"/>
<path d="M60.6279 12.5227C58.3352 12.5227 56.5227 14.3352 56.5227 16.6279V27.5H51.5V16.6279C51.5 11.5824 55.5824 7.5 60.6279 7.5C63.1534 7.5 65.4517 8.52386 67.1051 10.1773L63.5909 13.6915C62.6562 12.7568 61.5 12.5227 60.6279 12.5227Z" fill="#262A41"/>
<path d="M83.0001 27.5H78V12.5H83.0001V15.5256C84.3409 13.6051 86.5342 12.5 89.0342 12.5C93.4006 12.5 97 16.0995 97 20.6932C97 25.2869 93.4006 28.8864 89.0342 28.8864C86.5342 28.8864 84.3409 27.7813 83.0001 25.8608V27.5Z" fill="#262A41"/>
<path d="M89.0342 25C91.2273 25 93 23.2273 93 21C93 18.7727 91.2273 17 89.0342 17C86.8409 17 85.0682 18.7727 85.0682 21C85.0682 23.2273 86.8409 25 89.0342 25Z" fill="#262A41"/>
<path d="M109.205 27.5H104.148L100.313 12.5H105.511L106.671 21.25L107.83 12.5H112.96L114.119 21.25L115.28 12.5H120.477L116.642 27.5H111.585L109.813 21.3636L108.04 27.5H109.205Z" fill="#262A41"/>
<path d="M136.222 28.8864C131.795 28.8864 128.25 25.3409 128.25 20.6932C128.25 16.0455 131.795 12.5 136.222 12.5C140.648 12.5 144.193 16.0455 144.193 20.6932C144.193 25.3409 140.648 28.8864 136.222 28.8864ZM136.222 25C138.415 25 140.188 23.2273 140.188 21C140.188 18.7727 138.415 17 136.222 17C134.028 17 132.256 18.7727 132.256 21C132.256 23.2273 134.028 25 136.222 25Z" fill="#262A41"/>
<path d="M152.415 12.5L152.415 27.5H157.415V12.5H152.415Z" fill="#262A41"/>
<path d="M165.75 27.5H160.75V12.5H165.75V15.5256C167.091 13.6051 169.284 12.5 171.784 12.5C173.125 12.5 174.295 12.7273 175.313 13.1534L173.841 17.9205C173.08 17.6364 172.375 17.5 171.784 17.5C169.591 17.5 167.818 19.2727 167.818 21.5V27.5H165.75Z" fill="#262A41"/>
</svg>